<svg version="1.1" xmlns="http://www.w3.org/2000/svg" viewBox="0 0 414.44207763671875 321.6122131347657" width="414.44207763671875" height="321.6122131347657">
  <!-- svg-source:excalidraw -->
  
  <defs>
    <style class="style-fonts">
      @font-face {
        font-family: "Virgil";
        src: url("https://excalidraw.com/Virgil.woff2");
      }
      @font-face {
        font-family: "Cascadia";
        src: url("https://excalidraw.com/Cascadia.woff2");
      }
    </style>
    
  </defs>
  <rect x="0" y="0" width="414.44207763671875" height="321.6122131347657" fill="#ffffff"></rect><g stroke-linecap="round" transform="translate(10 10) rotate(0 197.22103881835938 150.80610656738284)"><path d="M7.86 8.16 C7.86 8.16, 7.86 8.16, 7.86 8.16 M7.86 8.16 C7.86 8.16, 7.86 8.16, 7.86 8.16 M0.91 40.54 C11.34 28.13, 21.79 14.61, 36.34 -0.21 M0.91 40.54 C11.06 29.6, 19.59 18.82, 36.34 -0.21 M1.18 64.62 C17.68 43.91, 40.24 21.18, 57.6 -0.28 M1.18 64.62 C21.03 42.4, 40.73 17.79, 57.6 -0.28 M0.79 89.46 C26.32 59.49, 48.23 32.53, 78.2 0.41 M0.79 89.46 C18.61 69.24, 36.65 49.17, 78.2 0.41 M1.05 113.54 C23.4 90.32, 43.18 64.25, 99.46 0.34 M1.05 113.54 C36.22 73.35, 70.73 34.55, 99.46 0.34 M0.66 138.38 C37.99 98.67, 74.1 56.06, 120.72 0.27 M0.66 138.38 C45.76 87.71, 91.57 36.61, 120.72 0.27 M0.93 162.46 C53.43 98.76, 106.61 38.22, 141.98 0.2 M0.93 162.46 C50.14 106.46, 99.64 50.81, 141.98 0.2 M0.54 187.3 C36.48 145.22, 71.43 106.53, 163.24 0.13 M0.54 187.3 C63.18 112.82, 127.79 38.64, 163.24 0.13 M0.81 211.38 C67.38 136.49, 132.76 61.89, 184.5 0.06 M0.81 211.38 C62.13 143.31, 123.04 73.31, 184.5 0.06 M0.42 236.22 C58.09 170.74, 113.58 105.81, 205.76 -0.01 M0.42 236.22 C62.45 162.98, 126.41 89.08, 205.76 -0.01 M0.68 260.3 C60.61 190.92, 118.68 123.78, 227.02 -0.08 M0.68 260.3 C57.41 195.17, 115.5 128.15, 227.02 -0.08 M2.26 282.87 C93.78 177.1, 187.51 69.36, 248.28 -0.15 M2.26 282.87 C81.23 191.07, 161.75 97.21, 248.28 -0.15 M11.71 296.38 C86.36 212.84, 157.65 128.7, 269.54 -0.22 M11.71 296.38 C96.01 199.21, 180.48 102.5, 269.54 -0.22 M29.04 300.84 C91.06 227.57, 155.75 153.32, 290.8 -0.28 M29.04 300.84 C127.73 188.33, 225.65 75.9, 290.8 -0.28 M49.64 301.53 C144.63 192.37, 238.35 85.78, 311.41 0.4 M49.64 301.53 C130.07 209.18, 211.83 115.22, 311.41 0.4 M70.9 301.46 C155.43 205.55, 239.14 105.83, 332.67 0.33 M70.9 301.46 C169.85 187.23, 269.04 72.65, 332.67 0.33 M91.51 302.15 C171.13 211.13, 251.63 120.27, 353.93 0.26 M91.51 302.15 C150.76 233.65, 210.72 164.77, 353.93 0.26 M112.77 302.08 C182.66 221.35, 255.22 138.63, 373.88 1.7 M112.77 302.08 C211.83 185.43, 311.95 69.77, 373.88 1.7 M134.03 302.01 C209.28 216.68, 283.33 129.74, 387.92 9.94 M134.03 302.01 C199.78 226.27, 265.02 150.88, 387.92 9.94 M155.29 301.94 C220.44 225.22, 285.51 152.4, 394.09 27.23 M155.29 301.94 C209.3 238.55, 265.08 173.68, 394.09 27.23 M176.55 301.87 C263.49 203.67, 348.9 105.92, 395.01 50.55 M176.55 301.87 C229.84 241.03, 282.73 179.5, 395.01 50.55 M197.81 301.8 C259.38 229.16, 321.06 160.83, 394.62 75.39 M197.81 301.8 C252.38 236.74, 308.6 172.8, 394.62 75.39 M219.07 301.73 C253.72 260.15, 290.03 221.44, 394.89 99.47 M219.07 301.73 C286.23 224.01, 353.53 147.7, 394.89 99.47 M240.33 301.66 C287.8 245.79, 335.41 191.67, 395.16 123.55 M240.33 301.66 C285.75 249.35, 330.12 196.33, 395.16 123.55 M261.59 301.59 C286.67 268.82, 315.83 239.89, 394.77 148.39 M261.59 301.59 C301.88 254.29, 343.87 204.83, 394.77 148.39 M282.85 301.53 C325.9 251.41, 365.87 202.57, 395.03 172.47 M282.85 301.53 C321.18 258.25, 359.68 214.43, 395.03 172.47 M304.11 301.46 C326.51 271.71, 349.88 247.89, 394.64 197.31 M304.11 301.46 C327.62 275.08, 350.47 246.63, 394.64 197.31 M324.71 302.14 C352.27 273.51, 378.24 240.26, 394.91 221.39 M324.71 302.14 C344.12 278.2, 364.91 255.46, 394.91 221.39 M345.97 302.07 C359.94 285.46, 374.55 269.84, 395.18 245.47 M345.97 302.07 C361.48 285.82, 374.24 268.67, 395.18 245.47 M367.89 301.25 C379.34 287.81, 390.2 276.55, 394.79 270.31 M367.89 301.25 C376.39 291.63, 385.45 279.87, 394.79 270.31 M8.25 293.83 C8.25 293.83, 8.25 293.83, 8.25 293.83 M8.25 293.83 C8.25 293.83, 8.25 293.83, 8.25 293.83 M41.39 301.44 C29.28 291.18, 18.93 281.11, -0.12 265.36 M41.39 301.44 C25.38 288.33, 8.88 272.29, -0.12 265.36 M65.47 301.17 C50.25 288.19, 37.29 277.19, -0.19 244.1 M65.47 301.17 C42.08 281.95, 19.44 262.04, -0.19 244.1 M90.31 301.56 C68.12 281.93, 46.14 260.03, 0.5 223.49 M90.31 301.56 C70.23 283.05, 49.73 267.11, 0.5 223.49 M114.39 301.3 C87.36 276.35, 56.12 252.74, 0.43 202.23 M114.39 301.3 C78.16 270.27, 41.77 237.46, 0.43 202.23 M139.23 301.69 C93.5 260.23, 46.22 220.14, 0.36 180.97 M139.23 301.69 C86.14 257.86, 33.67 212.34, 0.36 180.97 M163.31 301.42 C97.4 243.05, 33.46 187.24, 0.29 159.71 M163.31 301.42 C127.37 271.14, 93.99 240.48, 0.29 159.71 M187.39 301.15 C136.6 258.11, 85.46 214.2, 0.22 138.45 M187.39 301.15 C122.23 242.76, 54.25 183.11, 0.22 138.45 M212.23 301.54 C160.89 256.89, 113.25 215.76, 0.15 117.19 M212.23 301.54 C159.87 255.03, 106.45 208.69, 0.15 117.19 M236.31 301.28 C146.58 223.28, 55.37 143.71, 0.09 95.93 M236.31 301.28 C183.49 253.33, 131.38 207.44, 0.09 95.93 M261.15 301.67 C171.82 226.04, 83.14 146.47, 0.77 75.33 M261.15 301.67 C170.14 220.84, 79.06 141.2, 0.77 75.33 M285.23 301.4 C216.53 243.35, 148.8 182.29, 0.7 54.07 M285.23 301.4 C221.26 246.09, 158.1 190.8, 0.7 54.07 M309.31 301.13 C243.05 241.46, 178.3 183.64, 0.63 32.81 M309.31 301.13 C189.32 197.62, 68.87 94, 0.63 32.81 M334.15 301.52 C206.11 189.84, 78.99 78.16, 4.34 14.83 M334.15 301.52 C225.26 207.13, 116.21 112.17, 4.34 14.83 M358.23 301.26 C235.38 194.07, 113.74 88.69, 15.59 3.41 M358.23 301.26 C250.57 209.14, 143.27 115.96, 15.59 3.41 M378.54 297.71 C308.19 235.29, 238.67 174.02, 35.14 -0.8 M378.54 297.71 C260.73 197.19, 143.8 94.66, 35.14 -0.8 M390.54 286.95 C268.24 179.48, 145.36 72.91, 59.98 -0.41 M390.54 286.95 C314.96 221.23, 238.94 154.64, 59.98 -0.41 M395 269.62 C319.15 202.52, 241.31 135.45, 84.06 -0.67 M395 269.62 C282.28 173.47, 171.35 77.3, 84.06 -0.67 M394.93 248.36 C318.4 178.1, 238.39 110.46, 108.9 -0.28 M394.93 248.36 C301.61 167.55, 208.72 87.87, 108.9 -0.28 M394.86 227.1 C311.19 151.59, 227.29 79.47, 132.98 -0.55 M394.86 227.1 C314.36 157.44, 233.49 86.24, 132.98 -0.55 M394.79 205.84 C302.33 124.88, 209.02 42.5, 157.06 -0.82 M394.79 205.84 C314.31 135.7, 233.36 65.08, 157.06 -0.82 M394.73 184.58 C313.18 112.51, 228.64 40.07, 181.9 -0.43 M394.73 184.58 C345.71 139.35, 294.92 95.23, 181.9 -0.43 M394.66 163.32 C348.32 122.63, 299.65 79.94, 205.98 -0.69 M394.66 163.32 C338.5 115.83, 283.74 68.55, 205.98 -0.69 M394.59 142.06 C349.13 101.18, 303.19 61.52, 230.82 -0.3 M394.59 142.06 C360.36 112.53, 328.56 82.6, 230.82 -0.3 M394.52 120.8 C353.86 86.03, 313.32 51.6, 254.9 -0.57 M394.52 120.8 C344.59 77.78, 294.77 33.25, 254.9 -0.57 M394.45 99.54 C351.83 63.96, 311.33 26.24, 279.73 -0.18 M394.45 99.54 C350.32 61.56, 306.38 22.58, 279.73 -0.18 M394.38 78.28 C362.43 50.96, 330.39 19.37, 303.81 -0.45 M394.38 78.28 C359.73 48.73, 323.13 17.36, 303.81 -0.45 M394.31 57.02 C376.31 38.45, 354.28 21.21, 327.9 -0.71 M394.31 57.02 C369.9 35.96, 345.36 15.19, 327.9 -0.71 M395 36.42 C385.24 26.42, 376.19 21.31, 352.73 -0.32 M395 36.42 C385.36 29.44, 376.87 20.85, 352.73 -0.32" stroke="#6741d9" stroke-width="2" fill="none"></path><path d="M32 0 C159.99 -1.35, 288.52 0.03, 362.44 0 M32 0 C150.4 2.43, 269.13 1.7, 362.44 0 M362.44 0 C384.4 -1.25, 394.42 9.73, 394.44 32 M362.44 0 C385.54 0.43, 393.64 9.64, 394.44 32 M394.44 32 C392.62 111.75, 393.44 188.62, 394.44 269.61 M394.44 32 C395.01 83.48, 394.49 135.7, 394.44 269.61 M394.44 269.61 C394.59 290.84, 384.33 302.4, 362.44 301.61 M394.44 269.61 C394.75 292.77, 382.22 300.28, 362.44 301.61 M362.44 301.61 C249.43 303.5, 134.93 303.18, 32 301.61 M362.44 301.61 C294.62 300.19, 227.91 300.46, 32 301.61 M32 301.61 C11.81 300.4, -1.88 289.65, 0 269.61 M32 301.61 C9.94 302.47, 2.06 291.38, 0 269.61 M0 269.61 C2.12 213.44, -0.11 155.98, 0 32 M0 269.61 C-0.57 220.39, 0.21 169.47, 0 32 M0 32 C1.94 9.98, 12.54 1.56, 32 0 M0 32 C-1.18 11.08, 12.81 -1.24, 32 0" stroke="#1971c2" stroke-width="4" fill="none"></path></g><g transform="translate(118.9932861328125 119.7086181640625) rotate(0 85.44517517089844 52.60060119628906)" stroke="none"><path fill="#e03131" d="M -13.37,17.23 Q -13.37,17.23 -14.68,23.28 -15.99,29.34 -17.24,34.12 -18.50,38.90 -21.32,45.60 -24.15,52.31 -27.86,59.95 -31.56,67.58 -35.90,76.47 -40.24,85.36 -45.22,94.89 -50.21,104.42 -55.56,113.42 -60.92,122.43 -65.63,130.54 -70.34,138.65 -73.82,145.41 -77.30,152.16 -79.00,156.37 -80.70,160.58 -81.72,163.28 -82.74,165.99 -83.31,166.74 -83.88,167.49 -84.61,168.08 -85.35,168.68 -86.20,169.08 -87.05,169.48 -87.98,169.66 -88.90,169.85 -89.84,169.81 -90.79,169.76 -91.69,169.50 -92.59,169.23 -93.41,168.76 -94.22,168.28 -94.90,167.63 -95.58,166.97 -96.08,166.17 -96.58,165.37 -96.87,164.48 -97.17,163.58 -97.24,162.64 -97.31,161.70 -97.16,160.77 -97.00,159.84 -96.63,158.98 -96.26,158.11 -92.15,148.04 -88.04,137.96 -83.24,128.99 -78.45,120.01 -72.26,109.52 -66.07,99.03 -58.68,87.52 -51.30,76.01 -43.61,64.14 -35.92,52.26 -30.10,43.53 -24.28,34.79 -17.21,25.56 -10.14,16.33 -3.59,8.68 2.95,1.03 8.33,-4.81 13.70,-10.65 16.73,-14.30 19.77,-17.94 20.45,-18.48 21.13,-19.02 21.92,-19.38 22.71,-19.74 23.57,-19.90 24.42,-20.06 25.29,-20.01 26.15,-19.96 26.98,-19.71 27.81,-19.45 28.56,-19.01 29.31,-18.56 29.92,-17.95 30.54,-17.34 30.99,-16.60 31.45,-15.86 31.71,-15.03 31.97,-14.20 32.03,-13.34 32.09,-12.47 31.93,-11.62 31.78,-10.76 31.43,-9.97 31.08,-9.17 30.54,-8.49 30.01,-7.80 32.22,-2.71 34.43,2.36 32.93,12.79 31.43,23.22 28.72,31.21 26.01,39.19 21.92,48.20 17.83,57.21 13.36,66.38 8.90,75.56 4.87,84.13 0.84,92.69 -2.28,99.72 -5.42,106.74 -6.90,111.02 -8.39,115.30 -8.85,118.00 -9.32,120.69 -9.78,121.56 -10.25,122.44 -10.90,123.17 -11.56,123.91 -12.38,124.46 -13.19,125.02 -14.11,125.37 -15.04,125.71 -16.02,125.83 -17.00,125.94 -17.98,125.82 -18.96,125.69 -19.88,125.34 -20.80,124.99 -21.61,124.42 -22.42,123.86 -23.07,123.12 -23.72,122.37 -24.17,121.50 -24.63,120.62 -24.86,119.66 -25.09,118.71 -25.08,117.72 -25.08,116.73 -24.84,115.78 -24.60,114.82 -21.47,109.20 -18.34,103.59 -15.81,99.16 -13.29,94.74 -7.33,87.95 -1.38,81.16 6.21,72.45 13.81,63.74 23.03,54.64 32.24,45.54 41.62,36.51 51.00,27.48 59.25,20.09 67.49,12.69 72.28,7.90 77.08,3.11 79.77,-0.15 82.47,-3.42 83.22,-3.98 83.96,-4.54 84.82,-4.91 85.68,-5.27 86.60,-5.42 87.52,-5.57 88.44,-5.49 89.37,-5.42 90.26,-5.12 91.14,-4.82 91.93,-4.33 92.71,-3.83 93.36,-3.16 94.00,-2.48 94.47,-1.68 94.93,-0.87 95.19,0.02 95.45,0.91 95.49,1.84 95.53,2.77 95.34,3.69 95.15,4.60 94.75,5.44 94.35,6.28 93.76,7.00 93.17,7.72 93.67,13.34 94.16,18.96 92.14,27.07 90.12,35.19 86.60,45.04 83.09,54.90 78.55,65.99 74.02,77.08 68.83,89.34 63.63,101.60 58.45,113.53 53.28,125.47 48.81,135.93 44.34,146.40 40.88,154.53 37.42,162.66 36.27,167.52 35.12,172.38 30.30,171.63 25.48,170.89 30.58,162.10 35.68,153.31 42.39,143.57 49.11,133.83 59.40,120.20 69.69,106.57 82.83,91.08 95.98,75.58 112.95,58.61 129.92,41.64 147.94,25.76 165.95,9.89 178.33,-0.62 190.71,-11.14 202.93,-21.79 215.16,-32.44 224.59,-41.63 234.01,-50.81 240.65,-58.06 247.28,-65.32 252.09,-70.92 256.89,-76.53 257.63,-77.11 258.37,-77.70 259.26,-78.02 260.15,-78.34 261.10,-78.36 262.04,-78.38 262.95,-78.09 263.85,-77.81 264.61,-77.25 265.37,-76.69 265.92,-75.92 266.47,-75.15 266.74,-74.24 267.01,-73.34 266.97,-72.39 266.94,-71.45 266.61,-70.56 266.28,-69.68 265.68,-68.95 265.08,-68.22 264.28,-67.71 263.48,-67.21 262.56,-66.99 261.64,-66.77 260.70,-66.85 259.76,-66.93 258.89,-67.31 258.03,-67.69 257.33,-68.33 256.63,-68.97 256.17,-69.79 255.71,-70.62 255.54,-71.55 255.37,-72.48 255.51,-73.41 255.64,-74.35 256.07,-75.19 256.49,-76.04 257.17,-76.70 257.84,-77.36 258.69,-77.78 259.54,-78.19 260.48,-78.31 261.41,-78.43 262.34,-78.25 263.27,-78.06 264.09,-77.59 264.91,-77.12 265.53,-76.41 266.16,-75.70 266.53,-74.83 266.89,-73.96 266.96,-73.02 267.03,-72.07 266.80,-71.16 266.56,-70.24 266.05,-69.45 265.53,-68.66 265.53,-68.66 265.53,-68.66 260.40,-63.35 255.27,-58.04 248.46,-50.53 241.65,-43.02 232.06,-33.57 222.46,-24.12 210.26,-13.35 198.05,-2.58 185.84,7.98 173.64,18.54 156.04,34.30 138.43,50.07 122.02,66.84 105.60,83.60 93.00,99.01 80.40,114.42 70.76,128.01 61.12,141.60 54.94,151.80 48.75,162.00 44.19,169.38 39.63,176.75 31.79,179.82 23.95,182.90 23.32,175.54 22.69,168.19 24.85,163.26 27.00,158.32 30.33,150.14 33.66,141.95 37.95,131.38 42.24,120.81 47.13,108.84 52.03,96.88 56.82,84.60 61.62,72.32 65.54,61.41 69.46,50.50 72.09,41.30 74.73,32.09 75.96,23.97 77.20,15.85 78.30,11.17 79.40,6.50 80.94,1.53 82.47,-3.42 83.22,-3.98 83.96,-4.54 84.82,-4.91 85.68,-5.27 86.60,-5.42 87.52,-5.57 88.44,-5.49 89.37,-5.42 90.26,-5.12 91.14,-4.83 91.93,-4.33 92.71,-3.83 93.36,-3.16 94.00,-2.48 94.47,-1.68 94.93,-0.87 95.19,0.02 95.45,0.91 95.49,1.84 95.53,2.77 95.34,3.69 95.15,4.60 94.75,5.44 94.35,6.28 93.76,7.00 93.17,7.72 89.57,10.19 85.96,12.66 80.82,17.11 75.67,21.57 67.79,29.02 59.92,36.46 50.90,45.69 41.89,54.92 33.48,63.94 25.07,72.96 18.13,82.02 11.18,91.09 6.55,97.72 1.91,104.35 -0.75,108.15 -3.41,111.95 -6.37,116.32 -9.32,120.69 -9.78,121.56 -10.25,122.44 -10.90,123.17 -11.56,123.91 -12.38,124.46 -13.19,125.02 -14.11,125.37 -15.04,125.71 -16.02,125.83 -17.00,125.94 -17.98,125.82 -18.95,125.69 -19.88,125.34 -20.80,124.99 -21.61,124.42 -22.41,123.86 -23.07,123.12 -23.72,122.38 -24.17,121.50 -24.63,120.62 -24.86,119.67 -25.09,118.71 -25.08,117.72 -25.08,116.73 -24.84,115.78 -24.60,114.82 -23.18,112.04 -21.75,109.25 -19.52,105.32 -17.29,101.38 -14.11,94.43 -10.94,87.48 -7.29,78.69 -3.64,69.90 0.16,60.72 3.97,51.54 7.03,43.05 10.09,34.55 11.90,27.03 13.70,19.51 15.63,10.44 17.55,1.37 18.67,-3.14 19.79,-7.66 19.78,-12.80 19.77,-17.94 20.45,-18.48 21.13,-19.02 21.92,-19.38 22.71,-19.74 23.56,-19.90 24.42,-20.06 25.29,-20.01 26.15,-19.96 26.98,-19.71 27.81,-19.46 28.56,-19.01 29.30,-18.56 29.92,-17.95 30.54,-17.34 30.99,-16.60 31.45,-15.86 31.71,-15.03 31.97,-14.21 32.03,-13.34 32.09,-12.47 31.93,-11.62 31.78,-10.76 31.43,-9.97 31.08,-9.17 30.54,-8.49 30.01,-7.80 26.08,-5.22 22.15,-2.64 16.81,2.80 11.48,8.24 5.22,15.73 -1.03,23.22 -7.73,32.21 -14.42,41.20 -20.00,50.00 -25.58,58.79 -32.96,70.79 -40.35,82.79 -47.20,94.27 -54.05,105.74 -59.52,116.14 -64.99,126.54 -68.95,135.63 -72.91,144.73 -75.66,150.97 -78.40,157.20 -80.57,161.60 -82.74,165.99 -83.31,166.74 -83.88,167.49 -84.61,168.08 -85.35,168.68 -86.20,169.08 -87.05,169.48 -87.98,169.66 -88.90,169.85 -89.84,169.81 -90.78,169.77 -91.69,169.50 -92.59,169.23 -93.41,168.76 -94.22,168.28 -94.90,167.63 -95.58,166.97 -96.08,166.17 -96.58,165.38 -96.87,164.48 -97.17,163.58 -97.24,162.65 -97.31,161.71 -97.16,160.78 -97.00,159.85 -96.63,158.98 -96.26,158.11 -94.64,156.11 -93.03,154.11 -90.51,150.28 -88.00,146.46 -84.26,139.68 -80.52,132.89 -75.98,124.63 -71.44,116.37 -66.53,107.55 -61.62,98.73 -57.12,89.24 -52.62,79.75 -48.85,70.73 -45.08,61.71 -42.07,53.89 -39.06,46.07 -36.49,39.89 -33.92,33.72 -32.21,29.68 -30.51,25.64 -28.77,19.70 -27.03,13.76 -26.73,12.97 -26.42,12.17 -25.93,11.48 -25.44,10.78 -24.80,10.22 -24.16,9.66 -23.41,9.28 -22.65,8.89 -21.83,8.69 -21.00,8.49 -20.15,8.50 -19.30,8.50 -18.48,8.71 -17.65,8.92 -16.90,9.32 -16.15,9.72 -15.52,10.29 -14.89,10.86 -14.41,11.56 -13.93,12.26 -13.64,13.06 -13.34,13.86 -13.25,14.70 -13.15,15.55 -13.26,16.39 -13.37,17.23 -13.37,17.23 L -13.37,17.23 Z"></path></g></svg>