<svg version="1.1" xmlns="http://www.w3.org/2000/svg" viewBox="0 0 407.56842041015625 306.91290283203125" width="407.56842041015625" height="306.91290283203125">
  <!-- svg-source:excalidraw -->
  
  <defs>
    <style class="style-fonts">
      @font-face {
        font-family: "Virgil";
        src: url("https://excalidraw.com/Virgil.woff2");
      }
      @font-face {
        font-family: "Cascadia";
        src: url("https://excalidraw.com/Cascadia.woff2");
      }
    </style>
    
  </defs>
  <rect x="0" y="0" width="407.56842041015625" height="306.91290283203125" fill="#ffffff"></rect><g stroke-linecap="round" transform="translate(10 10) rotate(0 193.78421020507812 143.45645141601562)"><path d="M32 0 C131.44 -1.99, 231.08 -2.15, 355.57 0 C373.71 -2.8, 390.13 10.64, 387.57 32 C387.94 97.6, 386.12 164.52, 387.57 254.91 C386.9 276.98, 375.31 286.01, 355.57 286.91 C271.76 290.72, 183.38 290.9, 32 286.91 C11.85 289.37, -2.42 272.95, 0 254.91 C-1.72 182.97, -1.86 109.95, 0 32 C3.37 10.32, 7.86 0.66, 32 0" stroke="none" stroke-width="0" fill="#6741d9"></path><path d="M32 0 C157.31 -1.36, 283.16 0.05, 355.57 0 M32 0 C147.93 2.43, 264.18 1.69, 355.57 0 M355.57 0 C377.53 -1.25, 387.54 9.73, 387.57 32 M355.57 0 C378.66 0.43, 386.76 9.64, 387.57 32 M387.57 32 C385.77 106.95, 386.62 178.93, 387.57 254.91 M387.57 32 C388.15 80.27, 387.61 129.31, 387.57 254.91 M387.57 254.91 C387.71 276.14, 377.45 287.7, 355.57 286.91 M387.57 254.91 C387.88 278.07, 375.34 285.58, 355.57 286.91 M355.57 286.91 C244.95 288.78, 132.83 288.46, 32 286.91 M355.57 286.91 C289.14 285.49, 223.84 285.77, 32 286.91 M32 286.91 C11.81 285.7, -1.88 274.96, 0 254.91 M32 286.91 C9.94 287.77, 2.06 276.68, 0 254.91 M0 254.91 C2.12 202.2, -0.17 148.17, 0 32 M0 254.91 C-0.55 208.8, 0.26 160.95, 0 32 M0 32 C1.94 9.98, 12.54 1.56, 32 0 M0 32 C-1.18 11.08, 12.81 -1.24, 32 0" stroke="#1971c2" stroke-width="4" fill="none"></path></g><g transform="translate(118.99325561523438 104.1224365234375) rotate(0 85.44517517089844 52.60060119628906)" stroke="none"><path fill="#ffffff" d="M -13.37,17.23 Q -13.37,17.23 -14.68,23.28 -15.99,29.34 -17.24,34.12 -18.50,38.90 -21.32,45.60 -24.15,52.31 -27.86,59.95 -31.56,67.58 -35.90,76.47 -40.24,85.36 -45.22,94.89 -50.21,104.42 -55.56,113.42 -60.92,122.43 -65.63,130.54 -70.34,138.65 -73.82,145.41 -77.30,152.16 -79.00,156.37 -80.70,160.58 -81.72,163.28 -82.74,165.99 -83.31,166.74 -83.88,167.49 -84.61,168.08 -85.35,168.68 -86.20,169.08 -87.05,169.48 -87.98,169.66 -88.90,169.85 -89.84,169.81 -90.79,169.76 -91.69,169.50 -92.59,169.23 -93.41,168.76 -94.22,168.28 -94.90,167.63 -95.58,166.97 -96.08,166.17 -96.58,165.37 -96.87,164.48 -97.17,163.58 -97.24,162.64 -97.31,161.70 -97.16,160.77 -97.00,159.84 -96.63,158.98 -96.26,158.11 -92.15,148.04 -88.04,137.96 -83.24,128.99 -78.45,120.01 -72.26,109.52 -66.07,99.03 -58.68,87.52 -51.30,76.01 -43.61,64.14 -35.92,52.26 -30.10,43.53 -24.28,34.79 -17.21,25.56 -10.14,16.33 -3.59,8.68 2.95,1.03 8.33,-4.81 13.70,-10.65 16.73,-14.30 19.77,-17.94 20.45,-18.48 21.13,-19.02 21.92,-19.38 22.71,-19.74 23.57,-19.90 24.42,-20.06 25.29,-20.01 26.15,-19.96 26.98,-19.71 27.81,-19.45 28.56,-19.01 29.31,-18.56 29.92,-17.95 30.54,-17.34 30.99,-16.60 31.45,-15.86 31.71,-15.03 31.97,-14.20 32.03,-13.34 32.09,-12.47 31.93,-11.62 31.78,-10.76 31.43,-9.97 31.08,-9.17 30.54,-8.49 30.01,-7.80 32.22,-2.71 34.43,2.36 32.93,12.79 31.43,23.22 28.72,31.21 26.01,39.19 21.92,48.20 17.83,57.21 13.36,66.38 8.90,75.56 4.87,84.13 0.84,92.69 -2.28,99.72 -5.42,106.74 -6.90,111.02 -8.39,115.30 -8.85,118.00 -9.32,120.69 -9.78,121.56 -10.25,122.44 -10.90,123.17 -11.56,123.91 -12.38,124.46 -13.19,125.02 -14.11,125.37 -15.04,125.71 -16.02,125.83 -17.00,125.94 -17.98,125.82 -18.96,125.69 -19.88,125.34 -20.80,124.99 -21.61,124.42 -22.42,123.86 -23.07,123.12 -23.72,122.37 -24.17,121.50 -24.63,120.62 -24.86,119.66 -25.09,118.71 -25.08,117.72 -25.08,116.73 -24.84,115.78 -24.60,114.82 -21.47,109.20 -18.34,103.59 -15.81,99.16 -13.29,94.74 -7.33,87.95 -1.38,81.16 6.21,72.45 13.81,63.74 23.03,54.64 32.24,45.54 41.62,36.51 51.00,27.48 59.25,20.09 67.49,12.69 72.28,7.90 77.08,3.11 79.77,-0.15 82.47,-3.42 83.22,-3.98 83.96,-4.54 84.82,-4.91 85.68,-5.27 86.60,-5.42 87.52,-5.57 88.44,-5.49 89.37,-5.42 90.26,-5.12 91.14,-4.82 91.93,-4.33 92.71,-3.83 93.36,-3.16 94.00,-2.48 94.47,-1.68 94.93,-0.87 95.19,0.02 95.45,0.91 95.49,1.84 95.53,2.77 95.34,3.69 95.15,4.60 94.75,5.44 94.35,6.28 93.76,7.00 93.17,7.72 93.67,13.34 94.16,18.96 92.14,27.07 90.12,35.19 86.60,45.04 83.09,54.90 78.55,65.99 74.02,77.08 68.83,89.34 63.63,101.60 58.45,113.53 53.28,125.47 48.81,135.93 44.34,146.40 40.88,154.53 37.42,162.66 36.27,167.52 35.12,172.38 30.30,171.63 25.48,170.89 30.58,162.10 35.68,153.31 42.39,143.57 49.11,133.83 59.40,120.20 69.69,106.57 82.83,91.08 95.98,75.58 112.95,58.61 129.92,41.64 147.94,25.76 165.95,9.89 178.33,-0.62 190.71,-11.14 202.93,-21.79 215.16,-32.44 224.59,-41.63 234.01,-50.81 240.65,-58.06 247.28,-65.32 252.09,-70.92 256.89,-76.53 257.63,-77.11 258.37,-77.70 259.26,-78.02 260.15,-78.34 261.10,-78.36 262.04,-78.38 262.95,-78.09 263.85,-77.81 264.61,-77.25 265.37,-76.69 265.92,-75.92 266.47,-75.15 266.74,-74.24 267.01,-73.34 266.97,-72.39 266.94,-71.45 266.61,-70.56 266.28,-69.68 265.68,-68.95 265.08,-68.22 264.28,-67.71 263.48,-67.21 262.56,-66.99 261.64,-66.77 260.70,-66.85 259.76,-66.93 258.89,-67.31 258.03,-67.69 257.33,-68.33 256.63,-68.97 256.17,-69.79 255.71,-70.62 255.54,-71.55 255.37,-72.48 255.51,-73.41 255.64,-74.35 256.07,-75.19 256.49,-76.04 257.17,-76.70 257.84,-77.36 258.69,-77.78 259.54,-78.19 260.48,-78.31 261.41,-78.43 262.34,-78.25 263.27,-78.06 264.09,-77.59 264.91,-77.12 265.53,-76.41 266.16,-75.70 266.53,-74.83 266.89,-73.96 266.96,-73.02 267.03,-72.07 266.80,-71.16 266.56,-70.24 266.05,-69.45 265.53,-68.66 265.53,-68.66 265.53,-68.66 260.40,-63.35 255.27,-58.04 248.46,-50.53 241.65,-43.02 232.06,-33.57 222.46,-24.12 210.26,-13.35 198.05,-2.58 185.84,7.98 173.64,18.54 156.04,34.30 138.43,50.07 122.02,66.84 105.60,83.60 93.00,99.01 80.40,114.42 70.76,128.01 61.12,141.60 54.94,151.80 48.75,162.00 44.19,169.38 39.63,176.75 31.79,179.82 23.95,182.90 23.32,175.54 22.69,168.19 24.85,163.26 27.00,158.32 30.33,150.14 33.66,141.95 37.95,131.38 42.24,120.81 47.13,108.84 52.03,96.88 56.82,84.60 61.62,72.32 65.54,61.41 69.46,50.50 72.09,41.30 74.73,32.09 75.96,23.97 77.20,15.85 78.30,11.17 79.40,6.50 80.94,1.53 82.47,-3.42 83.22,-3.98 83.96,-4.54 84.82,-4.91 85.68,-5.27 86.60,-5.42 87.52,-5.57 88.44,-5.49 89.37,-5.42 90.26,-5.12 91.14,-4.83 91.93,-4.33 92.71,-3.83 93.36,-3.16 94.00,-2.48 94.47,-1.68 94.93,-0.87 95.19,0.02 95.45,0.91 95.49,1.84 95.53,2.77 95.34,3.69 95.15,4.60 94.75,5.44 94.35,6.28 93.76,7.00 93.17,7.72 89.57,10.19 85.96,12.66 80.82,17.11 75.67,21.57 67.79,29.02 59.92,36.46 50.90,45.69 41.89,54.92 33.48,63.94 25.07,72.96 18.13,82.02 11.18,91.09 6.55,97.72 1.91,104.35 -0.75,108.15 -3.41,111.95 -6.37,116.32 -9.32,120.69 -9.78,121.56 -10.25,122.44 -10.90,123.17 -11.56,123.91 -12.38,124.46 -13.19,125.02 -14.11,125.37 -15.04,125.71 -16.02,125.83 -17.00,125.94 -17.98,125.82 -18.95,125.69 -19.88,125.34 -20.80,124.99 -21.61,124.42 -22.41,123.86 -23.07,123.12 -23.72,122.38 -24.17,121.50 -24.63,120.62 -24.86,119.67 -25.09,118.71 -25.08,117.72 -25.08,116.73 -24.84,115.78 -24.60,114.82 -23.18,112.04 -21.75,109.25 -19.52,105.32 -17.29,101.38 -14.11,94.43 -10.94,87.48 -7.29,78.69 -3.64,69.90 0.16,60.72 3.97,51.54 7.03,43.05 10.09,34.55 11.90,27.03 13.70,19.51 15.63,10.44 17.55,1.37 18.67,-3.14 19.79,-7.66 19.78,-12.80 19.77,-17.94 20.45,-18.48 21.13,-19.02 21.92,-19.38 22.71,-19.74 23.56,-19.90 24.42,-20.06 25.29,-20.01 26.15,-19.96 26.98,-19.71 27.81,-19.46 28.56,-19.01 29.30,-18.56 29.92,-17.95 30.54,-17.34 30.99,-16.60 31.45,-15.86 31.71,-15.03 31.97,-14.21 32.03,-13.34 32.09,-12.47 31.93,-11.62 31.78,-10.76 31.43,-9.97 31.08,-9.17 30.54,-8.49 30.01,-7.80 26.08,-5.22 22.15,-2.64 16.81,2.80 11.48,8.24 5.22,15.73 -1.03,23.22 -7.73,32.21 -14.42,41.20 -20.00,50.00 -25.58,58.79 -32.96,70.79 -40.35,82.79 -47.20,94.27 -54.05,105.74 -59.52,116.14 -64.99,126.54 -68.95,135.63 -72.91,144.73 -75.66,150.97 -78.40,157.20 -80.57,161.60 -82.74,165.99 -83.31,166.74 -83.88,167.49 -84.61,168.08 -85.35,168.68 -86.20,169.08 -87.05,169.48 -87.98,169.66 -88.90,169.85 -89.84,169.81 -90.78,169.77 -91.69,169.50 -92.59,169.23 -93.41,168.76 -94.22,168.28 -94.90,167.63 -95.58,166.97 -96.08,166.17 -96.58,165.38 -96.87,164.48 -97.17,163.58 -97.24,162.65 -97.31,161.71 -97.16,160.78 -97.00,159.85 -96.63,158.98 -96.26,158.11 -94.64,156.11 -93.03,154.11 -90.51,150.28 -88.00,146.46 -84.26,139.68 -80.52,132.89 -75.98,124.63 -71.44,116.37 -66.53,107.55 -61.62,98.73 -57.12,89.24 -52.62,79.75 -48.85,70.73 -45.08,61.71 -42.07,53.89 -39.06,46.07 -36.49,39.89 -33.92,33.72 -32.21,29.68 -30.51,25.64 -28.77,19.70 -27.03,13.76 -26.73,12.97 -26.42,12.17 -25.93,11.48 -25.44,10.78 -24.80,10.22 -24.16,9.66 -23.41,9.28 -22.65,8.89 -21.83,8.69 -21.00,8.49 -20.15,8.50 -19.30,8.50 -18.48,8.71 -17.65,8.92 -16.90,9.32 -16.15,9.72 -15.52,10.29 -14.89,10.86 -14.41,11.56 -13.93,12.26 -13.64,13.06 -13.34,13.86 -13.25,14.70 -13.15,15.55 -13.26,16.39 -13.37,17.23 -13.37,17.23 L -13.37,17.23 Z"></path></g></svg>